<svg width="108" height="350" viewBox="0 0 108 350" fill="none" xmlns="http://www.w3.org/2000/svg">
<path d="M17 262L24.5 254L28 251.5L35 247L42.5 243.5L49 240.5L58 238L64 237.5H68L77 243.5L82.5 248.5L90.5 256.5L96 263L102 271L103 274.5L106 283.5L107.5 290V305.5L106 312L103 321.5L96.5 330.5L92.5 335L87 338.5L80 343L71.5 346L63.5 348.5L55 349.5L46.5 348L39.5 346.5L31.5 343.5L21.5 338L15.5 331.5L9.5 323L6.5 316L4.5 306V295L6.5 285L9.5 276.5L13.5 269L17 262Z" fill="white"/>
<path d="M20 251L24.5 254L32.5 248L42.5 243L53 238.5L61 237L68 237.5L71 233L72 228L70.5 223L69 214.5L68.5 207L71.5 200.5L78.5 199L82.5 196.5L86 193L89.5 187V182.5L88 173L84.5 171.5L78 166.5L72 162.5L69 159L68 154L65 149.5C64.8333 149.667 64.1 150.6 62.5 153C60.9 155.4 61.8333 165.667 62.5 170.5L57.75 168V163L55.5 159.5L57.75 156V147H52.5L47 142.5L41 141.5L35.5 143L31 145.5L28.5 150.5L26.5 155.5L24 162L18.5 165L13.5 169.5L10 174L7 179L4.5 184L2.5 189.5L0.5 196.5V205V214.5L1 220.5L2 225.5L4 231L7 235L11 241L15.5 246L20 251Z" fill="white"/>
<path d="M58 168L62.5 170.5L62 160.5V153.5L65 150L67.5 145.5L62.5 136L62 127L67.5 125.5L66.5 123L62 112.5V88L66.5 76L62.5 71V61.6875L66.5 59L62 46L62.5 19L66 12L62.5 4V0H58.5L58 25L55 29.5L57.5 38L58 61C57 61.6667 55 63.1 55 63.5C55 63.9 57 66.3333 58 67.5V96L56 102L58 107.5L58.5 125.5L55.5 126.5L58 132V146.5L57.5 155.75L56 159.5L57.5 163L58 168Z" fill="white"/>
</svg>
