<svg width="108" height="350" viewBox="0 0 108 350" fill="none" xmlns="http://www.w3.org/2000/svg">
    <path d="M202 0H-98V449.609H202V0Z" fill="white" />
    <path d="M11 237V240.5L6 234L3.50001 229.5L1.5 224L1 218L0.5 207.5L1 196L4 186L7.5 178L11 173L17 166.5L24 162L23.5 168.5L26.5 165L31.5 162L37.5 161L44 161.5L48.5 165L52 168.5L53 175.5L54 180.5V185L52 189L48.5 192.5L45 194.5L41.5 196C43.3333 196.833 48.5 198.6 54.5 199C66.5 201 70 198.5 72 196.5C73.6 194.9 73.6667 185.833 73.5 181.5C73 179.833 71.3 175.137 68.5 169.688L71.5 167L77 166L83 170.5L88 173.5L89.5 187L87 191L83.5 195L78.5 198.5L71.5 200L68 207L68.5 213.5L54.5 223.5L51.5 218.5L49 212.5L50.5 209L51.5 203L46.5 208L38 226L29.5 213.5L15 215L10 228.5L8 221.5L6.5 214L5 205L5.5 201L4.5 196C4 197 2.90001 200.4 2.50001 206C2.10001 211.6 3.00001 216.333 3.50001 218L7.50001 231L11 237Z" fill="white" />
    <path d="M17 262L24.5 254L28 251.5L35 247L42.5 243.5L49 240.5L58 238L64 237.5H68L77 243.5L82.5 248.5L90.5 256.5L96 263L102 271L103 274.5L106 283.5L107.5 290V305.5L106 312L103 321.5L96.5 330.5L92.5 335L87 338.5L80 343L71.5 346L63.5 348.5L55 349.5L46.5 348L39.5 346.5L31.5 343.5L21.5 338L15.5 331.5L9.5 323L6.5 316L4.5 306V295L6.5 285L9.5 276.5L13.5 269L17 262Z" fill="white" />
    <path d="M20 251L24.5 254L32.5 248L42.5 243L53 238.5L61 237L68 237.5L71 233L72 228L70.5 223L69 214.5L68.5 207L71.5 200.5L78.5 199L82.5 196.5L86 193L89.5 187V182.5L88 173L84.5 171.5L78 166.5L72 162.5L69 159L68 154L65 149.5C64.8333 149.667 64.1 150.6 62.5 153C60.9 155.4 61.8333 165.667 62.5 170.5L57.75 168V163L55.5 159.5L57.75 156V147H52.5L47 142.5L41 141.5L35.5 143L31 145.5L28.5 150.5L26.5 155.5L24 162L18.5 165L13.5 169.5L10 174L7 179L4.5 184L2.5 189.5L0.5 196.5V205V214.5L1 220.5L2 225.5L4 231L7 235L11 241L15.5 246L20 251Z" fill="white" />
    <path d="M58 168L62.5 170.5L62 160.5V153.5L65 150L67.5 145.5L62.5 136L62 127L67.5 125.5L66.5 123L62 112.5V88L66.5 76L62.5 71V61.6875L66.5 59L62 46L62.5 19L66 12L62.5 4V0H58.5L58 25L55 29.5L57.5 38L58 61C57 61.6667 55 63.1 55 63.5C55 63.9 57 66.3333 58 67.5V96L56 102L58 107.5L58.5 125.5L55.5 126.5L58 132V146.5L57.5 155.75L56 159.5L57.5 163L58 168Z" fill="white" />
    <path d="M12.5 302L17 308.5L18.5 305L20 302L23 300L27.5 299L32.5 297.5L37.5 295.5L43 292.5L48.5 289L52.5 285L56 280L58.5 275L60 268.5L60.5 262V255L55 252.5L49 251H43L37 252L31 254L27.5 256L23.5 258.5L19 262L15.5 265.5L13 269L11 274L10.5 281L10 285.5V291C10 291.667 10.1 293.6 10.5 296C10.9 298.4 12 301 12.5 302Z" fill="white" />
    <path d="M14.5 288.5C14.1 293.7 15 295 15.5 295L18 293.5L21.5 292L26 290.5L31.5 289.5L36 288.5L40 286L44.5 283.5L48 279.5L51.5 276L54 272.5L56 268L57.5 263.5V260L57 255.5L52 254L48 253.5H43L38 255L33.5 256.5L28.5 259.5L24.5 263L21.5 266L19.5 269.5L16.5 276C16 278 14.9 283.3 14.5 288.5Z" fill="white" />
    <path d="M74.5 259.5V255.5H84.5L90.5 258L96 262.5L99.5 267.5L102 271.5L104.5 278L106 283L107 289L107.5 291.5V298V303.5L106.5 307.5L105 306.5L100 303.5L95.5 300.5L91.5 297L88 293.5L84.5 288.5L82 284.5L79.5 279L77.5 274.5L76 270L75 264.5L74.5 259.5Z" fill="white" />
    <path d="M76.5 262V257H79.5L83 257.5L87 259L89.5 260.5L92.5 263L95 265.5L97 269.5L99.5 273.5L101 278L102.5 283L104 288V293V297.5L98 294L94 291L90 287L86 282.5L82.5 277.5L80 272.5L78 267.5L76.5 262Z" fill="white" />
    <path d="M17 240.5L20.5 246L16 243L11.5 237.5L8 232L5.5 224.5L3.5 218L3 211.5V205V199L4.99997 195V200C4.83331 201.333 4.59997 204.6 4.99997 207L5.99997 213L7.49997 220.5L9.49997 226.5L9.99997 232L12 224.5L13 231L15 235.5L17 240.5Z" fill="white" />
</svg>