<svg width="108" height="350" viewBox="0 0 108 350" fill="none" xmlns="http://www.w3.org/2000/svg">
    <path id="Vector 3" d="M20 259L24.5 254L19.5 250.5L15.5 246L10 239.5L5 233L3 228.5L1.5 223.5L0.5 217V208.5V196.5L1.5 192.5L3 188L4.5 184L6.5 179.5L8.5 176.5L12.5 170.5L16 167L20 164L24 162L25.5 158L27.5 153.5L29 149L31 146L33.5 143.5L37 142.5L40.5 141.5H44.5L48.5 143L52.5 147L58 146.5V131.5L55.5 126.5L58 125.5V107.5L56 102L58.5 95.5L58 82V67.5L55 63L58 61L57.5 37.5L55 29L58 24.5V0H63V4L66.5 12.5L62.5 19V28.5V45.5L67 59.5L63 62L62.5 71.5L66.5 76L62.5 88.5V113L67.5 125L62.5 126.5V136L67.5 145.5L65 149.5L68 154.5L69 159.5L73 163L77.5 165.893L80 167.5L85 171.5L88 173L89 177L89.5 181.5V187L87 191L84.5 195L81 198L76.5 199.5L71.5 200.5L70.5 203.5L68.5 207L69 213.5L70.5 221.5L72 228.5L71.5 231.5L70 235L68 237.5L73.5 241L80.5 246.5L85.5 251.5L89 255L96 263L102 271.5L104.5 278.5L107 288L107.5 293.5V304L106.5 310L105 316L103 321L101 324.5L98.5 328L97 330.5L94.5 333L91 336L88.5 338L84.5 340.5L80.5 343L76 345L70.5 346.5L65.5 348L60 349L55.5 349.5L50 349L40.5 347L35 345L29 342.5L25 340L21 337L18 334L14.5 331L12.5 328L9.5 323L7 318L6 313.5L5 310L4.5 305V300.5V296L5 293.5L6 287.5L7 283.5L8 281L10 276.5L11.5 272.5L13.5 268.5L16.5 263.5L20 259Z" fill="#C4C4C4" />
</svg>