<svg width="109" height="352" viewBox="0 0 109 352" fill="none" xmlns="http://www.w3.org/2000/svg">
<g id="Vector 3">
<path d="M20.5 260L25 255L20 251.5L16 247L10.5 240.5L5.5 234L3.5 229.5L2 224.5L1 218V209.5V197.5L2 193.5L3.5 189L5 185L7 180.5L9 177.5L13 171.5L16.5 168L20.5 165L24.5 163L26 159L28 154.5L29.5 150L31.5 147L34 144.5L37.5 143.5L41 142.5H45L49 144L53 148L58.5 147.5V132.5L56 127.5L58.5 126.5V108.5L56.5 103L59 96.5L58.5 83V68.5L55.5 64L58.5 62L58 38.5L55.5 30L58.5 25.5V1H63.5V5L67 13.5L63 20V29.5V46.5L67.5 60.5L63.5 63L63 72.5L67 77L63 89.5V114L68 126L63 127.5V137L68 146.5L65.5 150.5L68.5 155.5L69.5 160.5L73.5 164L78 166.893L80.5 168.5L85.5 172.5L88.5 174L89.5 178L90 182.5V188L87.5 192L85 196L81.5 199L77 200.5L72 201.5L71 204.5L69 208L69.5 214.5L71 222.5L72.5 229.5L72 232.5L70.5 236L68.5 238.5L74 242L81 247.5L86 252.5L89.5 256L96.5 264L102.5 272.5L105 279.5L107.5 289L108 294.5V305L107 311L105.5 317L103.5 322L101.5 325.5L99 329L97.5 331.5L95 334L91.5 337L89 339L85 341.5L81 344L76.5 346L71 347.5L66 349L60.5 350L56 350.5L50.5 350L41 348L35.5 346L29.5 343.5L25.5 341L21.5 338L18.5 335L15 332L13 329L10 324L7.5 319L6.5 314.5L5.5 311L5 306V301.5V297L5.5 294.5L6.5 288.5L7.5 284.5L8.5 282L10.5 277.5L12 273.5L14 269.5L17 264.5L20.5 260Z" fill="#C4C4C4"/>
<path d="M25 255L20.5 260L17 264.5L14 269.5L12 273.5L10.5 277.5L8.5 282L7.5 284.5L6.5 288.5L5.5 294.5L5 297V301.5V306L5.5 311L6.5 314.5L7.5 319L10 324L13 329L15 332L18.5 335L21.5 338L25.5 341L29.5 343.5L35.5 346L41 348L50.5 350L56 350.5L60.5 350L66 349L71 347.5L76.5 346L81 344L85 341.5L89 339L91.5 337L95 334L97.5 331.5L99 329L101.5 325.5L103.5 322L105.5 317L107 311L108 305V294.5L107.5 289L105 279.5L102.5 272.5L96.5 264L89.5 256L86 252.5L81 247.5L74 242L68.5 238.5M25 255L31 251L36.5 247.5L42.5 244.5L49.5 242L56 240.5L61.5 239L68.5 238.5M25 255L20 251.5L16 247L10.5 240.5L5.5 234L3.5 229.5L2 224.5L1 218V209.5V197.5M68.5 238.5L70.5 236L72 232.5L72.5 229.5L71 222.5L69.5 214.5L69 208M61 256.5L60.8117 256.397M60.8117 256.397L55.5 253.5L50 252.5L44.5 252L38.5 253L32 255L26.5 257.5L20.5 262L16.5 266L12.5 274L11 280L10.5 287.5V296.5L14 305L18 309.5L20 303.5L23.5 300.5L29.5 299L36.5 296.5L43 294L48.5 290L53 285.5L56 281.5L58.5 277L60 273L61 268L60.8117 256.397ZM1 197.5L2 193.5L3.5 189L5 185M1 197.5H4.5M5 185L7 180.5L9 177.5L13 171.5L16.5 168L20.5 165L24.5 163M5 185L9.5 183.5L21 184.5L25 191.5L30.5 195.5L29 201L20.5 207.5L21 195L15.5 194L10 193.5L5.5 196.5M24.5 163L26 159L28 154.5L29.5 150L31.5 147L34 144.5L37.5 143.5L41 142.5H45L49 144L53 148L58.5 147.5M24.5 163L23.5 170.5L28 166.5L32.5 163.5L39 162L44.5 163L49.5 166.5L52.5 170L53.5 179L54.5 187L50.5 192.5L42.5 196.5L54 200M58.5 147.5V157L56 160.5L58.5 163.5V168.5L63 171.5V154L65.5 150.5M58.5 147.5V132.5L56 127.5L58.5 126.5V108.5L56.5 103L59 96.5L58.5 83V68.5L55.5 64L58.5 62L58 38.5L55.5 30L58.5 25.5V1H63.5V5L67 13.5L63 20V29.5V46.5L67.5 60.5L63.5 63L63 72.5L67 77L63 89.5V114L68 126L63 127.5V137L68 146.5L65.5 150.5M65.5 150.5L68.5 155.5L69.5 160.5L73.5 164L78 166.893M69 208L71 204.5L72 201.5L77 200.5L81.5 199L85 196L87.5 192L90 188V182.5L89.5 178L88.5 174L85.5 172.5L80.5 168.5L78 166.893M69 208L68.5 216L55 225.5L49.5 213.5L51.5 208L54 200M12.5 226L14.5 234L16 238.5L18.5 243L21 247.5L14.5 241.5L9 234.5L6 226.5L4 220L3.5 212.5V204L4.5 197.5M12.5 226L10.5 233L10 226.5L7.5 220L5.5 213V207.5V196.5M12.5 226L16.5 216L30 215L39 226.5L46.5 208.5L54 200M5.5 196.5L4.5 197.5M54 200L60 201L66.5 200.5L71.5 198.5L73 194L74 186.5L73 179L69 171L72.5 168L78 166.893M16.5 296.5L21 293.5L28 291.5L34.5 290L40 287.5L45.5 284L49.5 279.5L53 275L56 270L57.5 265L58 257L52.5 255L45.5 254.5L39.5 255L33.5 258L27.5 261.5L23 267L18.5 273L16 282L15 289V293L15.5 296.5H16.5ZM75 256.5V264L76 269L78.5 276.5L81 283L84 288.5L87.5 293.5L91.5 298L97 302.5L103 306L106.5 308L107.5 304.5V296L107 291L106 286.5L104.5 280L102.5 274L98.5 268L95.5 264L93.5 261L91 259.5L87 257L83 256L75 256.5ZM77 258V263.5L77.5 267L79.5 272L81.5 276.5L87 284L91 288L96.5 293.5L104 298.5L104.5 295.5V291L103.5 287L102.5 283.5L101.5 279.5L100 275L97.5 270.5L95 266L91.5 263L87.5 260.5L83 259L77 258ZM44.5 234H46.5L48.5 233.5L49.5 232.5L51 233.5L51.5 232.5L50 231.5L50.5 230.5L52 231L53 229.5L50.5 229L51 227.5V226L50 225L49 227L48 226L46 225.5L44 226L43 227L42 228.5V229.5L40 230L39.5 231.5L40.5 231L42 231.5L41 233.5L40.5 235L42.5 234.5L43 233.5L44.5 234Z" stroke="black"/>
</g>
</svg>
